<?xml version="1.0" encoding="UTF-8" standalone="no"?>
<svg
   xmlns:dc="http://purl.org/dc/elements/1.1/"
   xmlns:cc="http://creativecommons.org/ns#"
   xmlns:rdf="http://www.w3.org/1999/02/22-rdf-syntax-ns#"
   xmlns:svg="http://www.w3.org/2000/svg"
   xmlns="http://www.w3.org/2000/svg"
   xmlns:sodipodi="http://sodipodi.sourceforge.net/DTD/sodipodi-0.dtd"
   xmlns:inkscape="http://www.inkscape.org/namespaces/inkscape"
   sodipodi:docname="jaivana-icon.svg"
   inkscape:version="1.0 (4035a4fb49, 2020-05-01)"
   id="svg8"
   version="1.1"
   viewBox="0 0 298.81796 297.478"
   height="297.478mm"
   width="298.81796mm">
  <defs
     id="defs2">
    <inkscape:path-effect
       effect="bspline"
       id="path-effect870"
       is_visible="true"
       lpeversion="1"
       weight="33.333333"
       steps="2"
       helper_size="0"
       apply_no_weight="true"
       apply_with_weight="true"
       only_selected="false" />
    <inkscape:path-effect
       only_selected="false"
       apply_with_weight="true"
       apply_no_weight="true"
       helper_size="0"
       steps="2"
       weight="33.333333"
       lpeversion="1"
       is_visible="true"
       id="path-effect851"
       effect="bspline" />
  </defs>
  <sodipodi:namedview
     inkscape:window-maximized="1"
     inkscape:window-y="44"
     inkscape:window-x="0"
     inkscape:window-height="1000"
     inkscape:window-width="1920"
     fit-margin-bottom="0"
     fit-margin-right="0"
     fit-margin-left="0"
     fit-margin-top="0"
     showgrid="false"
     inkscape:document-rotation="0"
     inkscape:current-layer="layer1"
     inkscape:document-units="mm"
     inkscape:cy="588.28463"
     inkscape:cx="646.47852"
     inkscape:zoom="0.49497475"
     inkscape:pageshadow="2"
     inkscape:pageopacity="0.0"
     borderopacity="1.0"
     bordercolor="#666666"
     pagecolor="#ffffff"
     id="base" />
  <metadata
     id="metadata5">
    <rdf:RDF>
      <cc:Work
         rdf:about="">
        <dc:format>image/svg+xml</dc:format>
        <dc:type
           rdf:resource="http://purl.org/dc/dcmitype/StillImage" />
        <dc:title></dc:title>
      </cc:Work>
    </rdf:RDF>
  </metadata>
  <g
     transform="translate(0.2176734,0.5051446)"
     id="layer1"
     inkscape:groupmode="layer"
     inkscape:label="Layer 1">
    <g
       style="stroke:#d2102e;stroke-opacity:1"
       transform="matrix(1.9102167,0,0,1.9102167,213.03633,-64.662071)"
       id="g874">
      <path
         style="fill:none;stroke:#d2102e;stroke-width:7.665;stroke-linecap:butt;stroke-linejoin:miter;stroke-miterlimit:4;stroke-dasharray:none;stroke-opacity:1"
         d="m -0.51320518,75.361825 c 0.62219711,1.706482 1.24439828,3.412975 2.04526228,9.071252 0.800864,5.658277 1.7801596,15.266072 1.8693378,24.078063 0.089178,8.81199 -0.7118035,16.82657 -1.6743141,21.71989 -0.9625106,4.89331 -2.08646289,6.66527 -3.1652088,7.82568 -1.078746,1.16042 -2.1123521,1.70936 -4.1327352,1.58336 -2.0203831,-0.126 -5.0276148,-0.92706 -9.1581608,-2.88242 -4.130546,-1.95537 -9.384142,-5.065 -13.189854,-6.97638 -3.805712,-1.91137 -6.051907,-2.59061 -8.350435,-2.7714 -2.298528,-0.18079 -4.593439,0.15384 -6.390353,1.117 -1.796914,0.96316 -3.095496,2.55471 -4.015878,4.49883 -0.920382,1.94412 -1.462497,4.24051 -0.640462,9.50283 0.822036,5.26232 3.008018,13.49006 5.355381,20.19281 2.347363,6.70275 4.855889,11.88013 7.474183,15.54563 2.618295,3.66551 5.346064,5.81903 7.323669,6.90273 1.977606,1.0837 3.123301,1.09683 4.993112,0.39777 1.86981,-0.69907 4.42295,-2.11069 9.262954,-8.01214 4.8400035,-5.90145 11.96666384,-16.2924 18.8158943,-28.94467 C 12.758418,135.5584 19.329834,120.64555 24.407087,107.57413 29.48434,94.502716 33.056007,83.308374 35.709383,73.002051 38.362758,62.695727 40.09201,53.295998 40.699664,47.436032 c 0.607653,-5.859966 0.09425,-8.175019 -0.194475,-9.422151 -0.288724,-1.247133 -0.350828,-1.417938 -0.411589,-1.625282 -0.06076,-0.207344 -0.119738,-0.449992 -0.178695,-0.692554"
         id="path849"
         inkscape:path-effect="#path-effect851"
         inkscape:original-d="m -0.51320518,75.361825 c 0.62234,1.70643 1.24455,3.41292 1.86659998,5.11947 0.97971,9.61004 1.95906,19.21783 2.93822,28.826655 -0.80075,8.01521 -1.60173,16.02979 -2.403,24.04429 -1.12372998,1.7723 -2.24768998,3.54425 -3.37193,5.31598 -1.03339,0.54923 -2.067,1.09816 -3.10089,1.64685 -3.00709,-0.80082 -6.0143198,-1.60188 -9.0218698,-2.40321 -5.25354,-3.1095 -10.50714,-6.21913 -15.76111,-9.3291 -2.36255,-0.69585 -4.60365,-1.39193 -6.90588,-2.08829 -2.294732,0.33491 -4.589643,0.66954 -6.884861,1.00391 -1.298368,1.59188 -2.596946,3.18344 -3.895817,4.77476 -0.541872,2.29675 -1.08399,4.59314 -1.626381,6.88932 2.186334,8.22834 4.372316,16.45608 6.558079,24.68372 2.508893,5.17786 5.01742,10.35524 7.52573,15.53246 2.72814,2.15387 5.45591,4.30739 8.18347,6.46069 1.22768,0.0139 2.37337,0.0275 3.55966,0.0408 2.55351,-1.41141 5.10665,-2.82303 7.65958,-4.23495 7.1272098,-10.39109 14.25386982,-20.78204 21.3803998,-31.17346 6.5719402,-14.91318 13.1433602,-29.82603 19.7146402,-44.73944 3.63797,-11.211995 7.15489,-22.423805 10.73194,-33.636115 1.72969,-9.400381 3.45894,-18.800111 5.18816,-28.201376 -0.51402,-2.318767 -1.02743,-4.633818 -1.54277,-6.956695 -0.0622,-0.171382 -0.12426,-0.342203 -0.18693,-0.514116 -0.0588,-0.242771 -0.11779,-0.485416 -0.17693,-0.727933"
         sodipodi:nodetypes="cccccccccccccccccccccccc" />
      <path
         inkscape:original-d="m 1.4607748,77.534085 c -0.44987,-0.2064 -0.89967998,-0.41292 -1.34943998,-0.61956 -10.48187982,-1.19367 -20.96378982,-2.35957 -31.44530982,-3.53967 -8.022149,0.7165 -16.045829,1.43225 -24.068354,2.14879 -1.784072,1.10493 -3.567799,2.2101 -5.351316,3.31556 -0.560118,1.02753 -1.119938,2.05527 -1.679528,3.08332 0.769002,3.01538 1.538234,6.03091 2.307742,9.04674 3.053779,5.28613 6.107752,10.572275 9.162021,15.858835 0.670845,2.36976 1.343205,4.6181 2.015195,6.92756 -0.35914,2.29108 -0.717997,4.58232 -1.076607,6.87387 -1.605508,1.28146 -3.210704,2.56315 -4.815659,3.84514 -2.302347,0.51756 -4.604339,1.03538 -6.906122,1.55349 -8.204776,-2.27319 -16.408955,-4.546 -24.613044,-6.81857 -5.151057,-2.56346 -10.30164,-5.12657 -15.452063,-7.68945 -2.12492,-2.75075 -4.24949,-5.50113 -6.37385,-8.25129 -9.3e-4,-1.22775 -0.002,-2.37353 -0.003,-3.559895 1.43831,-2.53844 2.87683,-5.07652 4.31565,-7.61439 10.465823,-7.017 20.931506,-14.03346 31.397656,-21.04978 14.981794,-6.413973 29.963259,-12.827438 44.945269,-19.240755 11.24982,-3.519283 22.4981898,-6.917528 33.7476498,-10.375891 9.4181402,-1.630255 18.8385902,-3.25996 28.2546402,-4.889852 2.35162,0.547864 4.70351,1.09521 7.05553,1.643108 0.38551,0.09899 0.77108,0.197788 1.1567,0.296408"
         inkscape:path-effect="#path-effect870"
         id="path849-3"
         d="M 1.4607748,77.534085 C 1.0109602,77.327564 0.56114961,77.121046 -4.9054629,76.427748 -10.372075,75.73445 -20.852429,74.55472 -30.104289,74.322892 c -9.251861,-0.231828 -17.275488,0.48451 -22.178701,1.395257 -4.903213,0.910746 -6.686945,2.015908 -7.858702,3.082333 -1.171756,1.066424 -1.73158,2.094162 -1.626938,4.115769 0.104641,2.021607 0.873876,5.037137 2.78548,9.18811 1.911605,4.150972 4.965545,9.437139 6.836597,13.262839 1.871051,3.8257 2.526513,6.07895 2.683004,8.37927 0.156491,2.30032 -0.20237,4.59156 -1.184458,6.37819 -0.982087,1.78663 -2.587281,3.06832 -4.541015,3.96811 -1.953733,0.89978 -4.255726,1.4176 -9.509069,0.54 -5.253343,-0.8776 -13.457522,-3.15041 -20.135093,-5.56847 -6.67757,-2.41807 -11.828158,-4.98117 -15.465786,-7.63805 -3.63762,-2.65689 -5.7622,-5.40726 -6.82491,-7.39621 -1.06271,-1.98894 -1.06368,-3.13472 -0.34487,-4.997033 0.71881,-1.862314 2.15734,-4.400393 8.109603,-9.177763 5.952267,-4.77737 16.417951,-11.793828 29.141887,-18.508973 12.723935,-6.715145 27.705401,-13.128606 40.829741,-18.067442 C -16.26318,48.339992 -5.0316991,44.886815 5.3020796,42.342503 15.635858,39.798192 25.056202,38.167872 30.940087,37.626911 c 5.883885,-0.540962 8.235694,0.0067 9.6045,0.330008 1.368807,0.323277 1.754375,0.42208 2.139948,0.520884"
         style="fill:none;stroke:#d2102e;stroke-width:7.66501;stroke-linecap:butt;stroke-linejoin:miter;stroke-miterlimit:4;stroke-dasharray:none;stroke-opacity:1"
         sodipodi:nodetypes="ccccccccccccccccccccccc" />
    </g>
  </g>
</svg>
